<svg width="114" height="79" viewBox="0 0 114 79" fill="none" xmlns="http://www.w3.org/2000/svg">
<g clip-path="url(#clip0_108_84)">
<rect width="1440" height="4774" transform="translate(-491 -1184)" fill="white"/>
<g filter="url(#filter0_dddddd_108_84)">
<rect x="-74" y="-40" width="267" height="314" rx="36" fill="white"/>
</g>
<path d="M22.8052 30.9999C22.8052 40.9411 30.864 48.9999 40.8052 48.9999L67.8052 48.9999C70.5666 48.9999 72.8052 46.7614 72.8052 43.9999L72.8052 9.99994C72.8052 4.47709 68.328 -6.12002e-05 62.8052 -6.07174e-05L27.8052 -5.76576e-05C25.0437 -5.74162e-05 22.8052 2.23852 22.8052 4.99994L22.8052 30.9999Z" fill="#FFF1DA"/>
<path d="M71.3891 44.9413C70.0307 45.2456 68.7077 45.8091 67.5022 46.5965C64.3614 48.5978 62.5341 51.4546 63.421 52.9767C64.308 54.4988 67.5731 54.1095 70.7138 52.1082C71.9356 51.3486 73.021 50.3779 73.9032 49.2559C74.3125 48.7138 74.386 48.0383 74.0908 47.5334L72.9386 45.556C72.6454 45.0495 72.0374 44.8086 71.3891 44.9413Z" fill="#D5D6DB"/>
<path d="M63.5021 17.9482C62.5171 18.169 61.5577 18.5778 60.6834 19.1488C58.4066 20.5996 57.0808 22.671 57.7234 23.7738C58.366 24.8766 60.7345 24.5941 63.0111 23.1434C63.897 22.5923 64.6839 21.8881 65.3237 21.0744C65.6202 20.6815 65.6733 20.1922 65.4593 19.8261L64.6251 18.3943C64.4128 18.0271 63.9722 17.8521 63.5021 17.9482Z" fill="#D5D6DB"/>
<path d="M50.688 19.0787C50.4687 19.0542 50.2349 19.1126 50.0322 19.2421L44.684 22.6503C44.2366 22.9346 44.0576 23.4819 44.2845 23.8731C44.3364 23.9627 44.4075 24.0393 44.4937 24.0983L57.6753 33.1832L75.5088 21.8185L50.688 19.0787Z" fill="#029BC5"/>
<path d="M107.065 17.794L58.5329 48.3461L29.8201 59.7716L15.177 62.6823L13.566 59.9451L94.4612 9.99845C96.872 8.50358 99.5576 7.58602 102.246 7.33893C103.424 7.23704 104.587 7.2762 105.708 7.45499C106.702 7.6057 107.645 7.89641 108.508 8.31851C109.472 8.79674 111.307 8.85189 111.901 9.80471C111.903 9.80318 113.305 14.1776 107.065 17.794V17.794Z" fill="#E1E6E9"/>
<path d="M59.1762 44.3036L38.1809 77.7735C37.9187 78.2437 38.0744 78.7702 38.5283 78.9494C38.8068 79.0595 39.1477 79.016 39.4341 78.834L44.7781 75.4438C45.806 74.7915 46.7161 73.9629 47.4523 73.0093L88.1686 25.1404L59.1762 44.3036Z" fill="#029BC5"/>
<path d="M6.19662 43.1861C5.8464 43.0664 5.42961 43.1285 5.07778 43.3525L0.660289 46.1659C0.0583729 46.549 -0.181478 47.2854 0.124384 47.8111C0.18266 47.911 0.258359 47.999 0.349096 48.0714L12.7259 57.9838L25.7389 49.8557L6.19662 43.1861Z" fill="#029BC5"/>
<path d="M16.8743 59.7707L10.2128 69.1002C10.1152 69.2343 10.1381 69.4026 10.2641 69.4759C10.3549 69.5288 10.4789 69.5192 10.5797 69.4517L14.708 66.8357C14.74 66.8154 14.7691 66.7899 14.7931 66.7609L24.5266 54.9261L16.8743 59.7707Z" fill="#029BC5"/>
<path d="M104.911 7.85723C103.757 7.6718 102.559 7.6322 101.346 7.73881C100.166 9.38989 99.4108 11.2446 99.1574 13.118C99.1389 13.4943 99.4422 13.7652 99.8351 13.723C99.9573 13.7098 100.079 13.6669 100.188 13.5981L107.796 8.75382C106.906 8.31521 105.935 8.01337 104.911 7.85723Z" fill="#029BC5"/>
<path d="M88.3322 16.7653L93.2992 13.6284L97.9258 21.4974L92.9588 24.6343L88.3322 16.7653Z" fill="#D5D6DB"/>
<path d="M85.2066 19.8775C84.6081 20.2567 84.3688 20.9855 84.6727 21.5052L85.165 22.3472C85.4889 22.8536 86.2282 22.9427 86.8164 22.546C87.3763 22.1682 87.6017 21.4815 87.3319 20.9745L86.8396 20.1325C86.536 19.6132 85.8052 19.499 85.2066 19.8775V19.8775Z" fill="#3A556A"/>
<path d="M80.7423 22.65C80.1437 23.0291 79.9045 23.7579 80.2084 24.2777L80.7007 25.1196C81.0245 25.6261 81.7638 25.7152 82.3521 25.3185C82.9119 24.9407 83.1373 24.254 82.8676 23.747L82.3752 22.905C82.0714 22.3859 81.3406 22.2716 80.7423 22.65V22.65Z" fill="#3A556A"/>
<path d="M76.2764 25.4233C75.6785 25.803 75.4401 26.5309 75.7438 27.0501L76.2361 27.8921C76.5599 28.3986 77.2992 28.4876 77.8875 28.0909C78.4473 27.7131 78.6727 27.0265 78.403 26.5195L77.9106 25.6775C77.6068 25.1578 76.8752 25.044 76.2764 25.4233V25.4233Z" fill="#3A556A"/>
<path d="M71.8121 28.1957C71.2142 28.5754 70.9758 29.3033 71.2794 29.8226L71.7717 30.6646C72.0956 31.171 72.8348 31.2601 73.4231 30.8634C73.9829 30.4856 74.2084 29.7989 73.9386 29.2919L73.4463 28.4499C73.1422 27.9304 72.4106 27.8166 71.8121 28.1957V28.1957Z" fill="#3A556A"/>
<path d="M67.3481 30.9684C66.7499 31.3482 66.5113 32.0764 66.8151 32.5959L67.3077 33.4383C67.6114 33.9575 68.3427 34.0712 68.941 33.6923C69.5394 33.3133 69.7783 32.5851 69.4746 32.0658L68.982 31.2235C68.6791 30.7037 67.9481 30.5892 67.3494 30.9676C67.3489 30.9679 67.3486 30.9681 67.3481 30.9684Z" fill="#3A556A"/>
<path d="M62.8837 33.7408C62.2855 34.1207 62.047 34.8489 62.3508 35.3684L62.8434 36.2107C63.147 36.73 63.8783 36.8437 64.4767 36.4647C65.075 36.0857 65.3139 35.3575 65.0103 34.8383L64.5177 33.9959C64.2148 33.4762 63.4838 33.3617 62.885 33.74C62.8845 33.7404 62.884 33.7407 62.8837 33.7408Z" fill="#3A556A"/>
<path d="M58.4191 36.5134C57.8209 36.8932 57.5824 37.6214 57.8862 38.1409L58.3788 38.9832C58.6832 39.502 59.4148 39.6145 60.0125 39.2351C60.6092 38.8562 60.8476 38.1296 60.5454 37.6109L60.0528 36.7686C59.7492 36.249 59.018 36.1347 58.4191 36.5134Z" fill="#3A556A"/>
<path d="M53.9545 39.2859C53.3563 39.6657 53.1178 40.3939 53.4216 40.9134L53.9142 41.7558C54.2186 42.2746 54.9502 42.3871 55.5479 42.0076C56.1446 41.6288 56.383 40.9021 56.0808 40.3835L55.5882 39.5411C55.2846 39.0215 54.5534 38.9072 53.9545 39.2859Z" fill="#3A556A"/>
<path d="M49.4903 42.0583C48.8921 42.4381 48.6535 43.1663 48.9573 43.6858L49.4499 44.5281C49.7543 45.0469 50.486 45.1595 51.0837 44.78C51.6804 44.4011 51.9188 43.6745 51.6165 43.1559L51.1239 42.3136C50.8201 41.7941 50.0889 41.6798 49.4903 42.0583Z" fill="#3A556A"/>
<path d="M45.0245 44.8315C44.4261 45.2105 44.1872 45.9387 44.4909 46.458L44.4915 46.4591L44.9841 47.3014C45.2885 47.8202 46.0201 47.9328 46.6179 47.5533C47.2146 47.1744 47.453 46.4478 47.1507 45.9291L46.6581 45.0868C46.3546 44.5671 45.6233 44.4528 45.0245 44.8315Z" fill="#3A556A"/>
<path d="M40.5612 47.6032C39.9629 47.9822 39.724 48.7104 40.0276 49.2296L40.0283 49.2307L40.5209 50.073C40.8253 50.5918 41.5569 50.7044 42.1546 50.3249C42.7514 49.9461 42.9898 49.2194 42.6875 48.7008L42.1949 47.8585C41.8911 47.339 41.1599 47.2247 40.5612 47.6032Z" fill="#3A556A"/>
</g>
<defs>
<filter id="filter0_dddddd_108_84" x="-154" y="-41.2963" width="427" height="495.296" filterUnits="userSpaceOnUse" color-interpolation-filters="sRGB">
<feFlood flood-opacity="0" result="BackgroundImageFix"/>
<feColorMatrix in="SourceAlpha" type="matrix" values="0 0 0 0 0 0 0 0 0 0 0 0 0 0 0 0 0 0 127 0" result="hardAlpha"/>
<feOffset dy="1.85185"/>
<feGaussianBlur stdDeviation="1.57407"/>
<feColorMatrix type="matrix" values="0 0 0 0 0 0 0 0 0 0 0 0 0 0 0 0 0 0 0.01 0"/>
<feBlend mode="normal" in2="BackgroundImageFix" result="effect1_dropShadow_108_84"/>
<feColorMatrix in="SourceAlpha" type="matrix" values="0 0 0 0 0 0 0 0 0 0 0 0 0 0 0 0 0 0 127 0" result="hardAlpha"/>
<feOffset dy="8.14815"/>
<feGaussianBlur stdDeviation="3.25926"/>
<feColorMatrix type="matrix" values="0 0 0 0 0 0 0 0 0 0 0 0 0 0 0 0 0 0 0.01 0"/>
<feBlend mode="normal" in2="effect1_dropShadow_108_84" result="effect2_dropShadow_108_84"/>
<feColorMatrix in="SourceAlpha" type="matrix" values="0 0 0 0 0 0 0 0 0 0 0 0 0 0 0 0 0 0 127 0" result="hardAlpha"/>
<feOffset dy="20"/>
<feGaussianBlur stdDeviation="6.5"/>
<feColorMatrix type="matrix" values="0 0 0 0 0 0 0 0 0 0 0 0 0 0 0 0 0 0 0.01 0"/>
<feBlend mode="normal" in2="effect2_dropShadow_108_84" result="effect3_dropShadow_108_84"/>
<feColorMatrix in="SourceAlpha" type="matrix" values="0 0 0 0 0 0 0 0 0 0 0 0 0 0 0 0 0 0 127 0" result="hardAlpha"/>
<feOffset dy="38.5185"/>
<feGaussianBlur stdDeviation="12.7407"/>
<feColorMatrix type="matrix" values="0 0 0 0 0 0 0 0 0 0 0 0 0 0 0 0 0 0 0.0121481 0"/>
<feBlend mode="normal" in2="effect3_dropShadow_108_84" result="effect4_dropShadow_108_84"/>
<feColorMatrix in="SourceAlpha" type="matrix" values="0 0 0 0 0 0 0 0 0 0 0 0 0 0 0 0 0 0 127 0" result="hardAlpha"/>
<feOffset dy="64.8148"/>
<feGaussianBlur stdDeviation="23.4259"/>
<feColorMatrix type="matrix" values="0 0 0 0 0 0 0 0 0 0 0 0 0 0 0 0 0 0 0.0151852 0"/>
<feBlend mode="normal" in2="effect4_dropShadow_108_84" result="effect5_dropShadow_108_84"/>
<feColorMatrix in="SourceAlpha" type="matrix" values="0 0 0 0 0 0 0 0 0 0 0 0 0 0 0 0 0 0 127 0" result="hardAlpha"/>
<feOffset dy="100"/>
<feGaussianBlur stdDeviation="40"/>
<feColorMatrix type="matrix" values="0 0 0 0 0 0 0 0 0 0 0 0 0 0 0 0 0 0 0.02 0"/>
<feBlend mode="normal" in2="effect5_dropShadow_108_84" result="effect6_dropShadow_108_84"/>
<feBlend mode="normal" in="SourceGraphic" in2="effect6_dropShadow_108_84" result="shape"/>
</filter>
<clipPath id="clip0_108_84">
<rect width="1440" height="4774" fill="white" transform="translate(-491 -1184)"/>
</clipPath>
</defs>
</svg>
